<svg id="Capa_1" enable-background="new 0 0 512 512" height="512" viewBox="0 0 512 512" width="512" xmlns="http://www.w3.org/2000/svg"><g><g><g><path d="m256 243.198c-29.254 0-57.574-10.402-79.744-29.29-21.943-18.694-36.564-44.513-41.17-72.698-.669-4.088 2.104-7.943 6.191-8.611 4.096-.679 7.944 2.104 8.611 6.191 8.467 51.807 53.093 89.408 106.111 89.408 59.275 0 107.5-47.82 107.5-106.599.001-58.779-48.224-106.599-107.499-106.599-53.013 0-98.743 39.16-106.372 91.09-.602 4.098-4.427 6.938-8.51 6.33-4.099-.602-6.933-4.412-6.33-8.51 4.205-28.626 18.681-54.91 40.761-74.013 22.285-19.279 50.856-29.897 80.451-29.897 67.547 0 122.5 54.55 122.5 121.6s-54.953 121.598-122.5 121.598z"/></g></g><g><g><path d="m256 512c-67.547 0-122.5-54.55-122.5-121.6 0-37.45 17.002-72.254 46.646-95.488 3.261-2.554 7.975-1.982 10.53 1.276 2.555 3.261 1.983 7.975-1.276 10.53-25.993 20.372-40.9 50.873-40.9 83.682 0 58.78 48.225 106.6 107.5 106.6s107.5-47.82 107.5-106.6c0-58.778-48.225-106.599-107.5-106.599-12.616 0-24.967 2.145-36.709 6.374-3.896 1.407-8.194-.616-9.598-4.514-1.404-3.897.617-8.194 4.514-9.598 13.377-4.819 27.438-7.263 41.793-7.263 67.547 0 122.5 54.549 122.5 121.599s-54.953 121.601-122.5 121.601z"/></g></g><g><g><path d="m256 201.708c-44.488 0-80.682-35.937-80.682-80.108 0-44.173 36.193-80.109 80.682-80.109 14.316 0 28.383 3.773 40.678 10.913 3.582 2.08 4.8 6.67 2.721 10.252-2.082 3.582-6.673 4.798-10.252 2.721-10.011-5.814-21.473-8.887-33.147-8.887-36.217 0-65.682 29.208-65.682 65.109s29.465 65.108 65.682 65.108 65.682-29.207 65.682-65.108c0-11.713-3.17-23.194-9.168-33.202-2.13-3.553-.976-8.159 2.577-10.288 3.552-2.128 8.159-.977 10.288 2.577 7.395 12.337 11.303 26.484 11.303 40.913 0 44.172-36.194 80.109-80.682 80.109z"/></g></g></g></svg>